<svg id="SvgjsSvg1006" width="610.125" height="500" xmlns="http://www.w3.org/2000/svg" version="1.1" xmlns:xlink="http://www.w3.org/1999/xlink" xmlns:svgjs="http://svgjs.com/svgjs"><defs id="SvgjsDefs1007"><marker id="SvgjsMarker1028" markerWidth="16" markerHeight="12" refX="10" refY="6" viewBox="0 0 16 12" orient="auto" markerUnits="userSpaceOnUse" stroke-dasharray="0,0"><path id="SvgjsPath1029" d="M0,3 L10,6 L0,9 L0,3" fill="#000000" stroke="#000000" stroke-width="1"></path></marker><marker id="SvgjsMarker1038" markerWidth="16" markerHeight="12" refX="10" refY="6" viewBox="0 0 16 12" orient="auto" markerUnits="userSpaceOnUse" stroke-dasharray="0,0"><path id="SvgjsPath1039" d="M0,3 L10,6 L0,9 L0,3" fill="#000000" stroke="#000000" stroke-width="1"></path></marker><marker id="SvgjsMarker1048" markerWidth="16" markerHeight="12" refX="10" refY="6" viewBox="0 0 16 12" orient="auto" markerUnits="userSpaceOnUse" stroke-dasharray="0,0"><path id="SvgjsPath1049" d="M0,3 L10,6 L0,9 L0,3" fill="#000000" stroke="#000000" stroke-width="1"></path></marker><marker id="SvgjsMarker1074" markerWidth="16" markerHeight="12" refX="10" refY="6" viewBox="0 0 16 12" orient="auto" markerUnits="userSpaceOnUse" stroke-dasharray="0,0"><path id="SvgjsPath1075" d="M0,3 L10,6 L0,9 L0,3" fill="#000000" stroke="#000000" stroke-width="1"></path></marker><marker id="SvgjsMarker1078" markerWidth="16" markerHeight="12" refX="10" refY="6" viewBox="0 0 16 12" orient="auto" markerUnits="userSpaceOnUse" stroke-dasharray="0,0"><path id="SvgjsPath1079" d="M0,3 L10,6 L0,9 L0,3" fill="#000000" stroke="#000000" stroke-width="1"></path></marker><marker id="SvgjsMarker1082" markerWidth="16" markerHeight="12" refX="10" refY="6" viewBox="0 0 16 12" orient="auto" markerUnits="userSpaceOnUse" stroke-dasharray="0,0"><path id="SvgjsPath1083" d="M0,3 L10,6 L0,9 L0,3" fill="#000000" stroke="#000000" stroke-width="1"></path></marker><marker id="SvgjsMarker1092" markerWidth="16" markerHeight="12" refX="10" refY="6" viewBox="0 0 16 12" orient="auto" markerUnits="userSpaceOnUse" stroke-dasharray="0,0"><path id="SvgjsPath1093" d="M0,3 L10,6 L0,9 L0,3" fill="#000000" stroke="#000000" stroke-width="1"></path></marker><marker id="SvgjsMarker1096" markerWidth="16" markerHeight="12" refX="10" refY="6" viewBox="0 0 16 12" orient="auto" markerUnits="userSpaceOnUse" stroke-dasharray="0,0"><path id="SvgjsPath1097" d="M0,3 L10,6 L0,9 L0,3" fill="#000000" stroke="#000000" stroke-width="1"></path></marker><marker id="SvgjsMarker1104" markerWidth="16" markerHeight="12" refX="10" refY="6" viewBox="0 0 16 12" orient="auto" markerUnits="userSpaceOnUse" stroke-dasharray="0,0"><path id="SvgjsPath1105" d="M0,3 L10,6 L0,9 L0,3" fill="#000000" stroke="#000000" stroke-width="1"></path></marker></defs><g id="SvgjsG1008" transform="translate(235.125,25)"><path id="SvgjsPath1009" d="M 9.333333333333334 0L 44.666666666666664 0C 57.111111111111114 0 57.111111111111114 28 44.666666666666664 28L 9.333333333333334 28C -3.111111111111111 28 -3.111111111111111 0 9.333333333333334 0Z" stroke="none" fill-opacity="1" fill="#66b2ff"></path><g id="SvgjsG1010"><text id="SvgjsText1011" font-family="微软雅黑" text-anchor="middle" font-size="13px" width="34px" fill="#ffffff" font-weight="400" align="middle" anchor="middle" family="微软雅黑" size="13px" weight="400" font-style="" opacity="1" y="4.05" transform="rotate(0)"><tspan id="SvgjsTspan1012" dy="16" x="27"><tspan id="SvgjsTspan1013" style="text-decoration:;">Start</tspan></tspan></text></g></g><g id="SvgjsG1014" transform="translate(240.75,447)"><path id="SvgjsPath1015" d="M 9.333333333333334 0L 44.666666666666664 0C 57.111111111111114 0 57.111111111111114 28 44.666666666666664 28L 9.333333333333334 28C -3.111111111111111 28 -3.111111111111111 0 9.333333333333334 0Z" stroke="none" fill-opacity="1" fill="#66b2ff"></path><g id="SvgjsG1016"><text id="SvgjsText1017" font-family="微软雅黑" text-anchor="middle" font-size="13px" width="34px" fill="#ffffff" font-weight="400" align="middle" anchor="middle" family="微软雅黑" size="13px" weight="400" font-style="" opacity="1" y="4.05" transform="rotate(0)"><tspan id="SvgjsTspan1018" dy="16" x="27"><tspan id="SvgjsTspan1019" style="text-decoration:;">End</tspan></tspan></text></g></g><g id="SvgjsG1020" transform="translate(160.625,78)"><path id="SvgjsPath1021" d="M 0 0L 203 0L 203 28L 0 28Z" stroke="rgba(23,23,23,1)" stroke-width="1" fill-opacity="1" fill="#ffff99"></path><g id="SvgjsG1022"><text id="SvgjsText1023" font-family="微软雅黑" text-anchor="middle" font-size="13px" width="183px" fill="#454545" font-weight="400" align="middle" anchor="middle" family="微软雅黑" size="13px" weight="400" font-style="" opacity="1" y="4.05" transform="rotate(0)"><tspan id="SvgjsTspan1024" dy="16" x="101.5"><tspan id="SvgjsTspan1025" style="text-decoration:;">Activity.dispatchTouchEvent()</tspan></tspan></text></g></g><g id="SvgjsG1026"><path id="SvgjsPath1027" d="M262.125 53L262.125 65.5L262.125 65.5L262.125 78" stroke="#000000" stroke-width="1" fill="none" marker-end="url(#SvgjsMarker1028)"></path></g><g id="SvgjsG1030" transform="translate(128.875,130)"><path id="SvgjsPath1031" d="M 0 0L 266.5 0L 266.5 28L 0 28Z" stroke="rgba(23,23,23,1)" stroke-width="1" fill-opacity="1" fill="#ffff99"></path><g id="SvgjsG1032"><text id="SvgjsText1033" font-family="微软雅黑" text-anchor="middle" font-size="13px" width="247px" fill="#454545" font-weight="400" align="middle" anchor="middle" family="微软雅黑" size="13px" weight="400" font-style="" opacity="1" y="4.05" transform="rotate(0)"><tspan id="SvgjsTspan1034" dy="16" x="133.5"><tspan id="SvgjsTspan1035" style="text-decoration:;">getWindow().superDispatchTouchEvent()</tspan></tspan></text></g></g><g id="SvgjsG1036"><path id="SvgjsPath1037" d="M262.125 106L262.125 118L262.125 118L262.125 130" stroke="#000000" stroke-width="1" fill="none" marker-end="url(#SvgjsMarker1038)"></path></g><g id="SvgjsG1040" transform="translate(142.375,184)"><path id="SvgjsPath1041" d="M 0 0L 239.5 0L 239.5 28L 0 28Z" stroke="rgba(23,23,23,1)" stroke-width="1" fill-opacity="1" fill="#ffff99"></path><g id="SvgjsG1042"><text id="SvgjsText1043" font-family="微软雅黑" text-anchor="middle" font-size="13px" width="220px" fill="#454545" font-weight="400" align="middle" anchor="middle" family="微软雅黑" size="13px" weight="400" font-style="" opacity="1" y="4.05" transform="rotate(0)"><tspan id="SvgjsTspan1044" dy="16" x="120"><tspan id="SvgjsTspan1045" style="text-decoration:;">mDecor.superDispatchTouchEvent()</tspan></tspan></text></g></g><g id="SvgjsG1046"><path id="SvgjsPath1047" d="M262.125 158L262.125 171L262.125 171L262.125 184" stroke="#000000" stroke-width="1" fill="none" marker-end="url(#SvgjsMarker1048)"></path></g><g id="SvgjsG1050" transform="translate(25,286)"><path id="SvgjsPath1051" d="M 0 0L 210.125 0L 210.125 35L 0 35Z" stroke="rgba(23,23,23,1)" stroke-width="1" fill-opacity="1" fill="#ffffff"></path><g id="SvgjsG1052"><text id="SvgjsText1053" font-family="微软雅黑" text-anchor="middle" font-size="13px" width="191px" fill="#454545" font-weight="400" align="middle" anchor="middle" family="微软雅黑" size="13px" weight="400" font-style="" opacity="1" y="-0.44999999999999996" transform="rotate(0)"><tspan id="SvgjsTspan1054" dy="16" x="105.5"><tspan id="SvgjsTspan1055" style="text-decoration:;font-size: inherit;">Activity.dispatchTouchEvent()</tspan></tspan><tspan id="SvgjsTspan1056" dy="16" x="105.5"><tspan id="SvgjsTspan1057" style="text-decoration:;font-size: inherit;">return Activity.onTouchEvent()</tspan></tspan></text></g></g><g id="SvgjsG1058" transform="translate(45.875,345)"><path id="SvgjsPath1059" d="M 0 0L 168.375 0L 168.375 28L 0 28Z" stroke="rgba(23,23,23,1)" stroke-width="1" fill-opacity="1" fill="#ffffff"></path><g id="SvgjsG1060"><text id="SvgjsText1061" font-family="微软雅黑" text-anchor="middle" font-size="13px" width="149px" fill="#454545" font-weight="400" align="middle" anchor="middle" family="微软雅黑" size="13px" weight="400" font-style="" opacity="1" y="4.05" transform="rotate(0)"><tspan id="SvgjsTspan1062" dy="16" x="84.5"><tspan id="SvgjsTspan1063" style="text-decoration:;">Activity.onTouchEvent()</tspan></tspan></text></g></g><g id="SvgjsG1064" transform="translate(284.75,339)"><path id="SvgjsPath1065" d="M 0 0L 209.5 0L 209.5 34L 0 34Z" stroke="rgba(23,23,23,1)" stroke-width="1" fill-opacity="1" fill="#ffffff"></path><g id="SvgjsG1066"><text id="SvgjsText1067" font-family="微软雅黑" text-anchor="middle" font-size="13px" width="190px" fill="#454545" font-weight="400" align="middle" anchor="middle" family="微软雅黑" size="13px" weight="400" font-style="" opacity="1" y="-0.95" transform="rotate(0)"><tspan id="SvgjsTspan1068" dy="16" x="105"><tspan id="SvgjsTspan1069" style="text-decoration:;">Activity.dispatchTouchEvent()</tspan></tspan><tspan id="SvgjsTspan1070" dy="16" x="105"><tspan id="SvgjsTspan1071" style="text-decoration:;">return true</tspan></tspan></text></g></g><g id="SvgjsG1072"><path id="SvgjsPath1073" d="M130.0625 321L130.0625 333L130.0625 333L130.0625 345" stroke="#000000" stroke-width="1" fill="none" marker-end="url(#SvgjsMarker1074)"></path></g><g id="SvgjsG1076"><path id="SvgjsPath1077" d="M130.0625 373L130.0625 410L267.75 410L267.75 447" stroke="#000000" stroke-width="1" fill="none" marker-end="url(#SvgjsMarker1078)"></path></g><g id="SvgjsG1080"><path id="SvgjsPath1081" d="M389.5 373L389.5 410L267.75 410L267.75 447" stroke="#000000" stroke-width="1" fill="none" marker-end="url(#SvgjsMarker1082)"></path></g><g id="SvgjsG1084" transform="translate(209.125,235)"><path id="SvgjsPath1085" d="M 0 14L 53 0L 106 14L 53 28Z" stroke="rgba(23,23,23,1)" stroke-width="1" fill-opacity="1" fill="#ffffff"></path><g id="SvgjsG1086"><text id="SvgjsText1087" font-family="微软雅黑" text-anchor="middle" font-size="13px" width="86px" fill="#454545" font-weight="400" align="middle" anchor="middle" family="微软雅黑" size="13px" weight="400" font-style="" opacity="1" y="4.19" transform="rotate(0)"><tspan id="SvgjsTspan1088" dy="16" x="53"><tspan id="SvgjsTspan1089" style="text-decoration:;">return?</tspan></tspan></text></g></g><g id="SvgjsG1090"><path id="SvgjsPath1091" d="M262.125 212L262.125 223.5L262.125 223.5L262.125 235" stroke="#000000" stroke-width="1" fill="none" marker-end="url(#SvgjsMarker1092)"></path></g><g id="SvgjsG1094"><path id="SvgjsPath1095" d="M315.125 249L389.5 249L389.5 339" stroke="#000000" stroke-width="1" fill="none" marker-end="url(#SvgjsMarker1096)"></path><rect id="SvgjsRect1098" width="24" height="16" x="335.59375" y="241" fill="#ffffff"></rect><text id="SvgjsText1099" font-family="微软雅黑" text-anchor="middle" font-size="13px" width="24px" fill="#323232" font-weight="400" align="top" anchor="middle" family="微软雅黑" size="13px" weight="400" font-style="" opacity="1" y="239.05" transform="rotate(0)"><tspan id="SvgjsTspan1100" dy="16" x="347.59375"><tspan id="SvgjsTspan1101" style="text-decoration:;">true</tspan></tspan></text></g><g id="SvgjsG1102"><path id="SvgjsPath1103" d="M209.125 249L130.0625 249L130.0625 286" stroke="#000000" stroke-width="1" fill="none" marker-end="url(#SvgjsMarker1104)"></path><rect id="SvgjsRect1106" width="29" height="16" x="150.625" y="241" fill="#ffffff"></rect><text id="SvgjsText1107" font-family="微软雅黑" text-anchor="middle" font-size="13px" width="29px" fill="#323232" font-weight="400" align="top" anchor="middle" family="微软雅黑" size="13px" weight="400" font-style="" opacity="1" y="239.05" transform="rotate(0)"><tspan id="SvgjsTspan1108" dy="16" x="165.125"><tspan id="SvgjsTspan1109" style="text-decoration:;">false</tspan></tspan></text></g><g id="SvgjsG1110" transform="translate(408.125,78)"><path id="SvgjsPath1111" d="M 0 134Q 9 134 9 125L 9 76Q 9 67 22 67Q 9 67 9 58L 9 9Q 9 0 0 0" stroke="rgba(23,23,23,1)" stroke-width="1" fill="none"></path><path id="SvgjsPath1112" d="M 0 0L 177 0L 177 134L 0 134Z" stroke="none" fill="none"></path><g id="SvgjsG1113"><text id="SvgjsText1114" font-family="微软雅黑" text-anchor="start" font-size="13px" width="150px" fill="#323232" font-weight="400" align="middle" anchor="start" family="微软雅黑" size="13px" weight="400" font-style="" opacity="1" y="57.05" transform="rotate(0)"><tspan id="SvgjsTspan1115" dy="16" x="27"><tspan id="SvgjsTspan1116" style="text-decoration:;">Activity -&gt; ViewGroup</tspan></tspan></text></g></g></svg>