<svg id="SvgjsSvg1006" width="738" height="286" xmlns="http://www.w3.org/2000/svg" version="1.1" xmlns:xlink="http://www.w3.org/1999/xlink" xmlns:svgjs="http://svgjs.com/svgjs"><defs id="SvgjsDefs1007"></defs><g id="SvgjsG1008" transform="translate(155,45)"><path id="SvgjsPath1009" d="M 0 4Q 0 0 4 0L 96 0Q 100 0 100 4L 100 196Q 100 200 96 200L 4 200Q 0 200 0 196Z" stroke="none" fill-opacity="1" fill="#66b2ff"></path><g id="SvgjsG1010"><text id="SvgjsText1011" font-family="微软雅黑" text-anchor="middle" font-size="18px" width="80px" fill="#ffffff" font-weight="700" align="middle" anchor="middle" family="微软雅黑" size="18px" weight="700" font-style="" opacity="1" y="85.8" transform="rotate(0)"><tspan id="SvgjsTspan1012" dy="22" x="50"><tspan id="SvgjsTspan1013" style="text-decoration:;">Activity</tspan></tspan></text></g></g><g id="SvgjsG1014" transform="translate(364,45)"><path id="SvgjsPath1015" d="M 0 4Q 0 0 4 0L 96 0Q 100 0 100 4L 100 196Q 100 200 96 200L 4 200Q 0 200 0 196Z" stroke="none" fill-opacity="1" fill="#66b2ff"></path><g id="SvgjsG1016"><text id="SvgjsText1017" font-family="微软雅黑" text-anchor="middle" font-size="18px" width="80px" fill="#ffffff" font-weight="700" align="middle" anchor="middle" family="微软雅黑" size="18px" weight="700" font-style="" opacity="1" y="74.3" transform="rotate(0)"><tspan id="SvgjsTspan1018" dy="22" x="50"><tspan id="SvgjsTspan1019" style="text-decoration:;">View </tspan></tspan><tspan id="SvgjsTspan1020" dy="22" x="50"><tspan id="SvgjsTspan1021" style="text-decoration:;">Group</tspan></tspan></text></g></g><g id="SvgjsG1022" transform="translate(613,46)"><path id="SvgjsPath1023" d="M 0 4Q 0 0 4 0L 96 0Q 100 0 100 4L 100 196Q 100 200 96 200L 4 200Q 0 200 0 196Z" stroke="none" fill-opacity="1" fill="#66b2ff"></path><g id="SvgjsG1024"><text id="SvgjsText1025" font-family="微软雅黑" text-anchor="middle" font-size="18px" width="80px" fill="#ffffff" font-weight="700" align="middle" anchor="middle" family="微软雅黑" size="18px" weight="700" font-style="" opacity="1" y="85.8" transform="rotate(0)"><tspan id="SvgjsTspan1026" dy="22" x="50"><tspan id="SvgjsTspan1027" style="text-decoration:;">View</tspan></tspan></text></g></g><g id="SvgjsG1028" transform="translate(259,55)"><path id="SvgjsPath1029" d="M 0 6.6000000000000005L 90 6.6000000000000005L 90 0L 100 10L 90 20L 90 13.4L 0 13.4L 0 6.6000000000000005Z" stroke="none" fill-opacity="1" fill="#66b2ff"></path><g id="SvgjsG1030"><text id="SvgjsText1031" font-family="微软雅黑" text-anchor="middle" font-size="13px" width="100px" fill="#323232" font-weight="400" align="middle" anchor="middle" family="微软雅黑" size="13px" weight="400" font-style="" opacity="1" y="0.05000000000000093" transform="rotate(0)"></text></g></g><g id="SvgjsG1032" transform="translate(468,55)"><path id="SvgjsPath1033" d="M 0 6.6000000000000005L 130 6.6000000000000005L 130 0L 140 10L 130 20L 130 13.4L 0 13.4L 0 6.6000000000000005Z" stroke="none" fill-opacity="1" fill="#66b2ff"></path><g id="SvgjsG1034"><text id="SvgjsText1035" font-family="微软雅黑" text-anchor="middle" font-size="13px" width="140px" fill="#323232" font-weight="400" align="middle" anchor="middle" family="微软雅黑" size="13px" weight="400" font-style="" opacity="1" y="0.05000000000000093" transform="rotate(0)"></text></g></g><g id="SvgjsG1036" transform="translate(259,215)"><path id="SvgjsPath1037" d="M 0 10L 10 0L 10 6.6000000000000005L 100 6.6000000000000005L 100 13.4L 10 13.4L 10 20L 0 10Z" stroke="none" fill-opacity="1" fill="#66b2ff"></path><g id="SvgjsG1038"><text id="SvgjsText1039" font-family="微软雅黑" text-anchor="middle" font-size="13px" width="100px" fill="#323232" font-weight="400" align="middle" anchor="middle" family="微软雅黑" size="13px" weight="400" font-style="" opacity="1" y="0.05000000000000093" transform="rotate(0)"></text></g></g><g id="SvgjsG1040" transform="translate(468,215)"><path id="SvgjsPath1041" d="M 0 10L 10 0L 10 6.6000000000000005L 140 6.6000000000000005L 140 13.4L 10 13.4L 10 20L 0 10Z" stroke="none" fill-opacity="1" fill="#66b2ff"></path><g id="SvgjsG1042"><text id="SvgjsText1043" font-family="微软雅黑" text-anchor="middle" font-size="13px" width="140px" fill="#323232" font-weight="400" align="middle" anchor="middle" family="微软雅黑" size="13px" weight="400" font-style="" opacity="1" y="0.05000000000000093" transform="rotate(0)"></text></g></g><g id="SvgjsG1044" transform="translate(52,55)"><path id="SvgjsPath1045" d="M 0 6.6000000000000005L 90 6.6000000000000005L 90 0L 100 10L 90 20L 90 13.4L 0 13.4L 0 6.6000000000000005Z" stroke="none" fill-opacity="1" fill="#66b2ff"></path><g id="SvgjsG1046"><text id="SvgjsText1047" font-family="微软雅黑" text-anchor="middle" font-size="13px" width="100px" fill="#323232" font-weight="400" align="middle" anchor="middle" family="微软雅黑" size="13px" weight="400" font-style="" opacity="1" y="0.05000000000000093" transform="rotate(0)"></text></g></g><g id="SvgjsG1048" transform="translate(52,210)"><path id="SvgjsPath1049" d="M 0 10L 10 0L 10 6.6000000000000005L 100 6.6000000000000005L 100 13.4L 10 13.4L 10 20L 0 10Z" stroke="none" fill-opacity="1" fill="#66b2ff"></path><g id="SvgjsG1050"><text id="SvgjsText1051" font-family="微软雅黑" text-anchor="middle" font-size="13px" width="100px" fill="#323232" font-weight="400" align="middle" anchor="middle" family="微软雅黑" size="13px" weight="400" font-style="" opacity="1" y="0.05000000000000093" transform="rotate(0)"></text></g></g><g id="SvgjsG1052" transform="translate(25,25)"><path id="SvgjsPath1053" d="M 0 0L 130 0L 130 20L 0 20Z" stroke="none" fill="none"></path><g id="SvgjsG1054"><text id="SvgjsText1055" font-family="微软雅黑" text-anchor="middle" font-size="13px" width="130px" fill="#323232" font-weight="400" align="middle" anchor="middle" family="微软雅黑" size="13px" weight="400" font-style="" opacity="1" y="0.050000000000000044" transform="rotate(0)"><tspan id="SvgjsTspan1056" dy="16" x="65"><tspan id="SvgjsTspan1057" style="text-decoration:;">dispatchTouchEvent</tspan></tspan></text></g></g><g id="SvgjsG1058" transform="translate(471.5,25)"><path id="SvgjsPath1059" d="M 0 0L 130 0L 130 20L 0 20Z" stroke="none" fill="none"></path><g id="SvgjsG1060"><text id="SvgjsText1061" font-family="微软雅黑" text-anchor="middle" font-size="13px" width="130px" fill="#323232" font-weight="400" align="middle" anchor="middle" family="微软雅黑" size="13px" weight="400" font-style="" opacity="1" y="0.050000000000000044" transform="rotate(0)"><tspan id="SvgjsTspan1062" dy="16" x="65"><tspan id="SvgjsTspan1063" style="text-decoration:;">dispatchTouchEvent</tspan></tspan></text></g></g><g id="SvgjsG1064" transform="translate(244,241)"><path id="SvgjsPath1065" d="M 0 0L 130 0L 130 20L 0 20Z" stroke="none" fill="none"></path><g id="SvgjsG1066"><text id="SvgjsText1067" font-family="微软雅黑" text-anchor="middle" font-size="13px" width="130px" fill="#323232" font-weight="400" align="middle" anchor="middle" family="微软雅黑" size="13px" weight="400" font-style="" opacity="1" y="0.050000000000000044" transform="rotate(0)"><tspan id="SvgjsTspan1068" dy="16" x="65"><tspan id="SvgjsTspan1069" style="text-decoration:;">onTouchEvent</tspan></tspan></text></g></g><g id="SvgjsG1070" transform="translate(471.5,241)"><path id="SvgjsPath1071" d="M 0 0L 130 0L 130 20L 0 20Z" stroke="none" fill="none"></path><g id="SvgjsG1072"><text id="SvgjsText1073" font-family="微软雅黑" text-anchor="middle" font-size="13px" width="130px" fill="#323232" font-weight="400" align="middle" anchor="middle" family="微软雅黑" size="13px" weight="400" font-style="" opacity="1" y="0.050000000000000044" transform="rotate(0)"><tspan id="SvgjsTspan1074" dy="16" x="65"><tspan id="SvgjsTspan1075" style="text-decoration:;">onTouchEvent</tspan></tspan></text></g></g><g id="SvgjsG1076" transform="matrix(6.123233995736766e-17,1,-1,6.123233995736766e-17,507,78.5)"><path id="SvgjsPath1077" d="M 0 13.600000000000012Q 0 0 13.600000000000012 0L 105.19999999999999 0Q 118.8 0 118.8 13.600000000000012L 118.8 27.200000000000024L 135 27.200000000000024L 114.55 34.00000000000003L 94.1 27.200000000000024L 110.29999999999998 27.200000000000024L 110.29999999999998 13.600000000000012Q 110.29999999999998 8.500000000000007 90.04999999999998 8.500000000000007L 28.750000000000007 8.500000000000007Q 8.500000000000007 8.500000000000007 8.500000000000007 13.600000000000012L 8.500000000000007 34.00000000000003L 0 34.00000000000003L 0 13.600000000000012Z" stroke="none" fill-opacity="1" fill="#66b2ff"></path><path id="SvgjsPath1078" d="M 0 0L 135 0L 135 34.00000000000003L 0 34.00000000000003Z" stroke="none" fill="none"></path><g id="SvgjsG1079"><text id="SvgjsText1080" font-family="微软雅黑" text-anchor="middle" font-size="13px" width="125px" fill="#323232" font-weight="400" align="middle" anchor="middle" family="微软雅黑" size="13px" weight="400" font-style="" opacity="1" y="7.050000000000014" transform="rotate(0)"></text></g></g><g id="SvgjsG1081" transform="translate(464,136)"><path id="SvgjsPath1082" d="M 0 0L 145 0L 145 20L 0 20Z" stroke="none" fill="none"></path><g id="SvgjsG1083"><text id="SvgjsText1084" font-family="微软雅黑" text-anchor="middle" font-size="13px" width="145px" fill="#323232" font-weight="400" align="middle" anchor="middle" family="微软雅黑" size="13px" weight="400" font-style="" opacity="1" y="0.050000000000000044" transform="rotate(0)"><tspan id="SvgjsTspan1085" dy="16" x="72.5"><tspan id="SvgjsTspan1086" style="text-decoration:;">onInterceptTouchEvent</tspan></tspan></text></g></g><g id="SvgjsG1087" transform="translate(244,25)"><path id="SvgjsPath1088" d="M 0 0L 130 0L 130 20L 0 20Z" stroke="none" fill="none"></path><g id="SvgjsG1089"><text id="SvgjsText1090" font-family="微软雅黑" text-anchor="middle" font-size="13px" width="130px" fill="#323232" font-weight="400" align="middle" anchor="middle" family="微软雅黑" size="13px" weight="400" font-style="" opacity="1" y="0.050000000000000044" transform="rotate(0)"><tspan id="SvgjsTspan1091" dy="16" x="65"><tspan id="SvgjsTspan1092" style="text-decoration:;">dispatchTouchEvent</tspan></tspan></text></g></g><g id="SvgjsG1093" transform="translate(25,241)"><path id="SvgjsPath1094" d="M 0 0L 130 0L 130 20L 0 20Z" stroke="none" fill="none"></path><g id="SvgjsG1095"><text id="SvgjsText1096" font-family="微软雅黑" text-anchor="middle" font-size="13px" width="130px" fill="#323232" font-weight="400" align="middle" anchor="middle" family="微软雅黑" size="13px" weight="400" font-style="" opacity="1" y="0.050000000000000044" transform="rotate(0)"><tspan id="SvgjsTspan1097" dy="16" x="65"><tspan id="SvgjsTspan1098" style="text-decoration:;">onTouchEvent</tspan></tspan></text></g></g></svg>