<svg id="SvgjsSvg1321" width="609.5" height="290" xmlns="http://www.w3.org/2000/svg" version="1.1" xmlns:xlink="http://www.w3.org/1999/xlink" xmlns:svgjs="http://svgjs.com/svgjs"><defs id="SvgjsDefs1322"><marker id="SvgjsMarker1405" markerWidth="16" markerHeight="12" refX="10" refY="6" viewBox="0 0 16 12" orient="auto" markerUnits="userSpaceOnUse" stroke-dasharray="0,0"><path id="SvgjsPath1406" d="M0,3 L10,6 L0,9 L0,3" fill="#323232" stroke="#323232" stroke-width="1"></path></marker><marker id="SvgjsMarker1409" markerWidth="16" markerHeight="12" refX="10" refY="6" viewBox="0 0 16 12" orient="auto" markerUnits="userSpaceOnUse" stroke-dasharray="0,0"><path id="SvgjsPath1410" d="M0,3 L10,6 L0,9 L0,3" fill="#323232" stroke="#323232" stroke-width="1"></path></marker><marker id="SvgjsMarker1413" markerWidth="16" markerHeight="12" refX="10" refY="6" viewBox="0 0 16 12" orient="auto" markerUnits="userSpaceOnUse" stroke-dasharray="0,0"><path id="SvgjsPath1414" d="M0,3 L10,6 L0,9 L0,3" fill="#323232" stroke="#323232" stroke-width="1"></path></marker><marker id="SvgjsMarker1417" markerWidth="16" markerHeight="12" refX="10" refY="6" viewBox="0 0 16 12" orient="auto" markerUnits="userSpaceOnUse" stroke-dasharray="0,0"><path id="SvgjsPath1418" d="M0,3 L10,6 L0,9 L0,3" fill="#323232" stroke="#323232" stroke-width="1"></path></marker><marker id="SvgjsMarker1421" markerWidth="16" markerHeight="12" refX="10" refY="6" viewBox="0 0 16 12" orient="auto" markerUnits="userSpaceOnUse" stroke-dasharray="0,0"><path id="SvgjsPath1422" d="M0,3 L10,6 L0,9 L0,3" fill="#323232" stroke="#323232" stroke-width="1"></path></marker><marker id="SvgjsMarker1425" markerWidth="16" markerHeight="12" refX="10" refY="6" viewBox="0 0 16 12" orient="auto" markerUnits="userSpaceOnUse" stroke-dasharray="0,0"><path id="SvgjsPath1426" d="M0,3 L10,6 L0,9 L0,3" fill="#323232" stroke="#323232" stroke-width="1"></path></marker><marker id="SvgjsMarker1429" markerWidth="16" markerHeight="12" refX="10" refY="6" viewBox="0 0 16 12" orient="auto" markerUnits="userSpaceOnUse" stroke-dasharray="0,0"><path id="SvgjsPath1430" d="M0,3 L10,6 L0,9 L0,3" fill="#323232" stroke="#323232" stroke-width="1"></path></marker></defs><g id="SvgjsG1323" transform="translate(25,25)"><path id="SvgjsPath1324" d="M 0 4Q 0 0 4 0L 146 0Q 150 0 150 4L 150 236Q 150 240 146 240L 4 240Q 0 240 0 236Z" stroke="none" fill-opacity="1" fill="#66b2ff"></path><g id="SvgjsG1325"><text id="SvgjsText1326" font-family="微软雅黑" text-anchor="middle" font-size="18px" width="130px" fill="#ffffff" font-weight="700" align="middle" anchor="middle" family="微软雅黑" size="18px" weight="700" font-style="" opacity="1" y="105.8" transform="rotate(0)"></text></g></g><g id="SvgjsG1327" transform="translate(226.5,25)"><path id="SvgjsPath1328" d="M 0 4Q 0 0 4 0L 146 0Q 150 0 150 4L 150 236Q 150 240 146 240L 4 240Q 0 240 0 236Z" stroke="none" fill-opacity="1" fill="#66b2ff"></path><g id="SvgjsG1329"><text id="SvgjsText1330" font-family="微软雅黑" text-anchor="middle" font-size="18px" width="130px" fill="#ffffff" font-weight="700" align="middle" anchor="middle" family="微软雅黑" size="18px" weight="700" font-style="" opacity="1" y="105.8" transform="rotate(0)"></text></g></g><g id="SvgjsG1331" transform="translate(434.5,25)"><path id="SvgjsPath1332" d="M 0 4Q 0 0 4 0L 146 0Q 150 0 150 4L 150 236Q 150 240 146 240L 4 240Q 0 240 0 236Z" stroke="none" fill-opacity="1" fill="#66b2ff"></path><g id="SvgjsG1333"><text id="SvgjsText1334" font-family="微软雅黑" text-anchor="middle" font-size="18px" width="130px" fill="#ffffff" font-weight="700" align="middle" anchor="middle" family="微软雅黑" size="18px" weight="700" font-style="" opacity="1" y="105.8" transform="rotate(0)"></text></g></g><g id="SvgjsG1335" transform="translate(50,78)"><path id="SvgjsPath1336" d="M 0 0L 100 0L 100 35L 0 35Z" stroke="rgba(50,50,50,1)" stroke-width="1" fill-opacity="1" fill="#ffffff"></path><g id="SvgjsG1337"><text id="SvgjsText1338" font-family="微软雅黑" text-anchor="middle" font-size="13px" width="80px" fill="#323232" font-weight="400" align="middle" anchor="middle" family="微软雅黑" size="13px" weight="400" font-style="" opacity="1" y="-0.44999999999999996" transform="rotate(0)"><tspan id="SvgjsTspan1339" dy="16" x="50"><tspan id="SvgjsTspan1340" style="text-decoration:;">dispatch</tspan></tspan><tspan id="SvgjsTspan1341" dy="16" x="50"><tspan id="SvgjsTspan1342" style="text-decoration:;">TouchEvent</tspan></tspan></text></g></g><g id="SvgjsG1343" transform="translate(251.5,78)"><path id="SvgjsPath1344" d="M 0 0L 100 0L 100 35L 0 35Z" stroke="rgba(50,50,50,1)" stroke-width="1" fill-opacity="1" fill="#ffffff"></path><g id="SvgjsG1345"><text id="SvgjsText1346" font-family="微软雅黑" text-anchor="middle" font-size="13px" width="80px" fill="#323232" font-weight="400" align="middle" anchor="middle" family="微软雅黑" size="13px" weight="400" font-style="" opacity="1" y="-0.44999999999999996" transform="rotate(0)"><tspan id="SvgjsTspan1347" dy="16" x="50"><tspan id="SvgjsTspan1348" style="text-decoration:;">dispatch</tspan></tspan><tspan id="SvgjsTspan1349" dy="16" x="50"><tspan id="SvgjsTspan1350" style="text-decoration:;">TouchEvent</tspan></tspan></text></g></g><g id="SvgjsG1351" transform="translate(459.5,78)"><path id="SvgjsPath1352" d="M 0 0L 100 0L 100 35L 0 35Z" stroke="rgba(50,50,50,1)" stroke-width="1" fill-opacity="1" fill="#ffffff"></path><g id="SvgjsG1353"><text id="SvgjsText1354" font-family="微软雅黑" text-anchor="middle" font-size="13px" width="80px" fill="#323232" font-weight="400" align="middle" anchor="middle" family="微软雅黑" size="13px" weight="400" font-style="" opacity="1" y="-0.44999999999999996" transform="rotate(0)"><tspan id="SvgjsTspan1355" dy="16" x="50"><tspan id="SvgjsTspan1356" style="text-decoration:;">dispatch</tspan></tspan><tspan id="SvgjsTspan1357" dy="16" x="50"><tspan id="SvgjsTspan1358" style="text-decoration:;">TouchEvent</tspan></tspan></text></g></g><g id="SvgjsG1359" transform="translate(50,219)"><path id="SvgjsPath1360" d="M 0 0L 108 0L 108 30L 0 30Z" stroke="rgba(50,50,50,1)" stroke-width="1" fill-opacity="1" fill="#ffffff"></path><g id="SvgjsG1361"><text id="SvgjsText1362" font-family="微软雅黑" text-anchor="middle" font-size="13px" width="88px" fill="#323232" font-weight="400" align="middle" anchor="middle" family="微软雅黑" size="13px" weight="400" font-style="" opacity="1" y="5.05" transform="rotate(0)"><tspan id="SvgjsTspan1363" dy="16" x="54"><tspan id="SvgjsTspan1364" style="text-decoration:;">onTouchEvent</tspan></tspan></text></g></g><g id="SvgjsG1365" transform="translate(247.5,219)"><path id="SvgjsPath1366" d="M 0 0L 108 0L 108 30L 0 30Z" stroke="rgba(50,50,50,1)" stroke-width="1" fill-opacity="1" fill="#ffffff"></path><g id="SvgjsG1367"><text id="SvgjsText1368" font-family="微软雅黑" text-anchor="middle" font-size="13px" width="88px" fill="#323232" font-weight="400" align="middle" anchor="middle" family="微软雅黑" size="13px" weight="400" font-style="" opacity="1" y="5.05" transform="rotate(0)"><tspan id="SvgjsTspan1369" dy="16" x="54"><tspan id="SvgjsTspan1370" style="text-decoration:;">onTouchEvent</tspan></tspan></text></g></g><g id="SvgjsG1371" transform="translate(455.5,219)"><path id="SvgjsPath1372" d="M 0 0L 108 0L 108 30L 0 30Z" stroke="rgba(50,50,50,1)" stroke-width="1" fill-opacity="1" fill="#ffffff"></path><g id="SvgjsG1373"><text id="SvgjsText1374" font-family="微软雅黑" text-anchor="middle" font-size="13px" width="88px" fill="#323232" font-weight="400" align="middle" anchor="middle" family="微软雅黑" size="13px" weight="400" font-style="" opacity="1" y="5.05" transform="rotate(0)"><tspan id="SvgjsTspan1375" dy="16" x="54"><tspan id="SvgjsTspan1376" style="text-decoration:;">onTouchEvent</tspan></tspan></text></g></g><g id="SvgjsG1377" transform="translate(247.5,147.5)"><path id="SvgjsPath1378" d="M 0 0L 108 0L 108 35L 0 35Z" stroke="rgba(50,50,50,1)" stroke-width="1" fill-opacity="1" fill="#ffffff"></path><g id="SvgjsG1379"><text id="SvgjsText1380" font-family="微软雅黑" text-anchor="middle" font-size="13px" width="88px" fill="#323232" font-weight="400" align="middle" anchor="middle" family="微软雅黑" size="13px" weight="400" font-style="" opacity="1" y="-0.44999999999999996" transform="rotate(0)"><tspan id="SvgjsTspan1381" dy="16" x="54"><tspan id="SvgjsTspan1382" style="text-decoration:;">onIntercept</tspan></tspan><tspan id="SvgjsTspan1383" dy="16" x="54"><tspan id="SvgjsTspan1384" style="text-decoration:;">TouchEvent</tspan></tspan></text></g></g><g id="SvgjsG1385" transform="translate(54,36)"><path id="SvgjsPath1386" d="M 0 0L 100 0L 100 30L 0 30Z" stroke="none" fill="none"></path><g id="SvgjsG1387"><text id="SvgjsText1388" font-family="Arial" text-anchor="middle" font-size="18px" width="100px" fill="#ffffff" font-weight="700" align="middle" anchor="middle" family="Arial" size="18px" weight="700" font-style="" opacity="1" y="0.8000000000000003" transform="rotate(0)"><tspan id="SvgjsTspan1389" dy="22" x="50"><tspan id="SvgjsTspan1390" style="text-decoration:;">Activity</tspan></tspan></text></g></g><g id="SvgjsG1391" transform="translate(251.5,36)"><path id="SvgjsPath1392" d="M 0 0L 100 0L 100 30L 0 30Z" stroke="none" fill="none"></path><g id="SvgjsG1393"><text id="SvgjsText1394" font-family="Arial" text-anchor="middle" font-size="18px" width="100px" fill="#ffffff" font-weight="700" align="middle" anchor="middle" family="Arial" size="18px" weight="700" font-style="" opacity="1" y="0.8000000000000003" transform="rotate(0)"><tspan id="SvgjsTspan1395" dy="22" x="50"><tspan id="SvgjsTspan1396" style="text-decoration:;">ViewGroup</tspan></tspan></text></g></g><g id="SvgjsG1397" transform="translate(459.5,36)"><path id="SvgjsPath1398" d="M 0 0L 100 0L 100 30L 0 30Z" stroke="none" fill="none"></path><g id="SvgjsG1399"><text id="SvgjsText1400" font-family="Arial" text-anchor="middle" font-size="18px" width="100px" fill="#ffffff" font-weight="700" align="middle" anchor="middle" family="Arial" size="18px" weight="700" font-style="" opacity="1" y="0.8000000000000003" transform="rotate(0)"><tspan id="SvgjsTspan1401" dy="22" x="50"><tspan id="SvgjsTspan1402" style="text-decoration:;">View</tspan></tspan></text></g></g><g id="SvgjsG1403"><path id="SvgjsPath1404" d="M150 95.5L200.75 95.5L200.75 95.5L251.5 95.5" stroke="#323232" stroke-width="1" fill="none" marker-end="url(#SvgjsMarker1405)"></path></g><g id="SvgjsG1407"><path id="SvgjsPath1408" d="M301.5 113L301.5 130.25L301.5 130.25L301.5 147.5" stroke="#323232" stroke-width="1" fill="none" marker-end="url(#SvgjsMarker1409)"></path></g><g id="SvgjsG1411"><path id="SvgjsPath1412" d="M301.5 182.5L301.5 200.75L301.5 200.75L301.5 219" stroke="#323232" stroke-width="1" fill="none" marker-end="url(#SvgjsMarker1413)"></path></g><g id="SvgjsG1415"><path id="SvgjsPath1416" d="M247.5 234L202.75 234L202.75 234L158 234" stroke="#323232" stroke-width="1" fill="none" marker-end="url(#SvgjsMarker1417)"></path></g><g id="SvgjsG1419"><path id="SvgjsPath1420" d="M351.5 95.5L405.5 95.5L405.5 95.5L459.5 95.5" stroke="#323232" stroke-width="1" fill="none" marker-end="url(#SvgjsMarker1421)"></path></g><g id="SvgjsG1423"><path id="SvgjsPath1424" d="M509.5 113L509.5 166L509.5 166L509.5 219" stroke="#323232" stroke-width="1" fill="none" marker-end="url(#SvgjsMarker1425)"></path></g><g id="SvgjsG1427"><path id="SvgjsPath1428" d="M455.5 234L405.5 234L405.5 234L355.5 234" stroke="#323232" stroke-width="1" fill="none" marker-end="url(#SvgjsMarker1429)"></path></g></svg>