<svg id="SvgjsSvg1040" width="545" height="370" xmlns="http://www.w3.org/2000/svg" version="1.1" xmlns:xlink="http://www.w3.org/1999/xlink" xmlns:svgjs="http://svgjs.com/svgjs"><defs id="SvgjsDefs1041"></defs><g id="SvgjsG1042" transform="translate(25,25)"><path id="SvgjsPath1043" d="M 0 0L 180 0L 180 320L 0 320Z" stroke="rgba(50,50,50,1)" stroke-width="1" fill-opacity="1" fill="#ffffff"></path><g id="SvgjsG1044"><text id="SvgjsText1045" font-family="微软雅黑" text-anchor="middle" font-size="13px" width="160px" fill="#323232" font-weight="400" align="middle" anchor="middle" family="微软雅黑" size="13px" weight="400" font-style="" opacity="1" y="150.05" transform="rotate(0)"></text></g></g><g id="SvgjsG1046" transform="translate(55,85)"><path id="SvgjsPath1047" d="M 0 0L 120 0L 120 200L 0 200Z" stroke="rgba(50,50,50,1)" stroke-width="1" fill-opacity="1" fill="#ffffff"></path><g id="SvgjsG1048"><text id="SvgjsText1049" font-family="微软雅黑" text-anchor="middle" font-size="13px" width="100px" fill="#323232" font-weight="400" align="middle" anchor="middle" family="微软雅黑" size="13px" weight="400" font-style="" opacity="1" y="90.05" transform="rotate(0)"></text></g></g><g id="SvgjsG1050" transform="translate(340,25)"><path id="SvgjsPath1051" d="M 0 0L 180 0L 180 320L 0 320Z" stroke="rgba(50,50,50,1)" stroke-width="1" fill-opacity="1" fill="#ffffff"></path><g id="SvgjsG1052"><text id="SvgjsText1053" font-family="微软雅黑" text-anchor="middle" font-size="13px" width="160px" fill="#323232" font-weight="400" align="middle" anchor="middle" family="微软雅黑" size="13px" weight="400" font-style="" opacity="1" y="150.05" transform="rotate(0)"></text></g></g><g id="SvgjsG1054" transform="translate(370,85)"><path id="SvgjsPath1055" d="M 0 0L 120 0L 120 200L 0 200Z" stroke="rgba(50,50,50,1)" stroke-width="1" fill-opacity="1" fill="#ffffff"></path><g id="SvgjsG1056"><text id="SvgjsText1057" font-family="微软雅黑" text-anchor="middle" font-size="13px" width="100px" fill="#323232" font-weight="400" align="middle" anchor="middle" family="微软雅黑" size="13px" weight="400" font-style="" opacity="1" y="90.05" transform="rotate(0)"></text></g></g><g id="SvgjsG1058" transform="translate(35,45)"><path id="SvgjsPath1059" d="M 0 10L 10 0L 10 6.6000000000000005L 150 6.6000000000000005L 150 0L 160 10L 150 20L 150 13.4L 10 13.4L 10 20L 0 10Z" stroke="rgba(50,50,50,1)" stroke-width="1" fill-opacity="1" fill="#ffffff"></path><g id="SvgjsG1060"><text id="SvgjsText1061" font-family="微软雅黑" text-anchor="middle" font-size="13px" width="160px" fill="#323232" font-weight="400" align="middle" anchor="middle" family="微软雅黑" size="13px" weight="400" font-style="" opacity="1" y="0.05000000000000093" transform="rotate(0)"></text></g></g><g id="SvgjsG1062" transform="translate(66,105)"><path id="SvgjsPath1063" d="M 10 0L 20 10L 13.4 10L 13.4 150L 20 150L 10 160L 0 150L 6.6000000000000005 150L 6.6000000000000005 10L 0 10L 10 0Z" stroke="rgba(50,50,50,1)" stroke-width="1" fill-opacity="1" fill="#ffffff"></path><g id="SvgjsG1064"><text id="SvgjsText1065" font-family="微软雅黑" text-anchor="middle" font-size="13px" width="28px" fill="#323232" font-weight="400" align="middle" anchor="middle" family="微软雅黑" size="13px" weight="400" font-style="" opacity="1" y="70.05" transform="rotate(0)"></text></g></g><g id="SvgjsG1066" transform="translate(345,45)"><path id="SvgjsPath1067" d="M 10 0L 20 10L 13.4 10L 13.4 270L 20 270L 10 280L 0 270L 6.6000000000000005 270L 6.6000000000000005 10L 0 10L 10 0Z" stroke="rgba(50,50,50,1)" stroke-width="1" fill-opacity="1" fill="#ffffff"></path><g id="SvgjsG1068"><text id="SvgjsText1069" font-family="微软雅黑" text-anchor="middle" font-size="13px" width="28px" fill="#323232" font-weight="400" align="middle" anchor="middle" family="微软雅黑" size="13px" weight="400" font-style="" opacity="1" y="130.05" transform="rotate(0)"></text></g></g><g id="SvgjsG1070" transform="translate(381,105)"><path id="SvgjsPath1071" d="M 10 0L 20 10L 13.4 10L 13.4 150L 20 150L 10 160L 0 150L 6.6000000000000005 150L 6.6000000000000005 10L 0 10L 10 0Z" stroke="rgba(50,50,50,1)" stroke-width="1" fill-opacity="1" fill="#ffffff"></path><g id="SvgjsG1072"><text id="SvgjsText1073" font-family="微软雅黑" text-anchor="middle" font-size="13px" width="28px" fill="#323232" font-weight="400" align="middle" anchor="middle" family="微软雅黑" size="13px" weight="400" font-style="" opacity="1" y="70.05" transform="rotate(0)"></text></g></g></svg>