<svg id="SvgjsSvg1096" width="522.984375" height="445.078125" xmlns="http://www.w3.org/2000/svg" version="1.1" xmlns:xlink="http://www.w3.org/1999/xlink" xmlns:svgjs="http://svgjs.com/svgjs"><defs id="SvgjsDefs1097"><marker id="SvgjsMarker1118" markerWidth="16" markerHeight="12" refX="10" refY="6" viewBox="0 0 16 12" orient="auto" markerUnits="userSpaceOnUse" stroke-dasharray="0,0"><path id="SvgjsPath1119" d="M0,3 L10,6 L0,9 L0,3" fill="#000000" stroke="#000000" stroke-width="1"></path></marker><marker id="SvgjsMarker1128" markerWidth="16" markerHeight="12" refX="10" refY="6" viewBox="0 0 16 12" orient="auto" markerUnits="userSpaceOnUse" stroke-dasharray="0,0"><path id="SvgjsPath1129" d="M0,3 L10,6 L0,9 L0,3" fill="#000000" stroke="#000000" stroke-width="1"></path></marker><marker id="SvgjsMarker1132" markerWidth="16" markerHeight="12" refX="10" refY="6" viewBox="0 0 16 12" orient="auto" markerUnits="userSpaceOnUse" stroke-dasharray="0,0"><path id="SvgjsPath1133" d="M0,3 L10,6 L0,9 L0,3" fill="#000000" stroke="#000000" stroke-width="1"></path></marker><marker id="SvgjsMarker1148" markerWidth="16" markerHeight="12" refX="10" refY="6" viewBox="0 0 16 12" orient="auto" markerUnits="userSpaceOnUse" stroke-dasharray="0,0"><path id="SvgjsPath1149" d="M0,3 L10,6 L0,9 L0,3" fill="#000000" stroke="#000000" stroke-width="1"></path></marker><marker id="SvgjsMarker1158" markerWidth="16" markerHeight="12" refX="10" refY="6" viewBox="0 0 16 12" orient="auto" markerUnits="userSpaceOnUse" stroke-dasharray="0,0"><path id="SvgjsPath1159" d="M0,3 L10,6 L0,9 L0,3" fill="#323232" stroke="#323232" stroke-width="1"></path></marker><marker id="SvgjsMarker1166" markerWidth="16" markerHeight="12" refX="10" refY="6" viewBox="0 0 16 12" orient="auto" markerUnits="userSpaceOnUse" stroke-dasharray="0,0"><path id="SvgjsPath1167" d="M0,3 L10,6 L0,9 L0,3" fill="#323232" stroke="#323232" stroke-width="1"></path></marker><marker id="SvgjsMarker1180" markerWidth="16" markerHeight="12" refX="10" refY="6" viewBox="0 0 16 12" orient="auto" markerUnits="userSpaceOnUse" stroke-dasharray="0,0"><path id="SvgjsPath1181" d="M0,3 L10,6 L0,9 L0,3" fill="#323232" stroke="#323232" stroke-width="1"></path></marker><marker id="SvgjsMarker1184" markerWidth="16" markerHeight="12" refX="10" refY="6" viewBox="0 0 16 12" orient="auto" markerUnits="userSpaceOnUse" stroke-dasharray="0,0"><path id="SvgjsPath1185" d="M0,3 L10,6 L0,9 L0,3" fill="#323232" stroke="#323232" stroke-width="1"></path></marker></defs><g id="SvgjsG1098" transform="translate(249.125,25)"><path id="SvgjsPath1099" d="M 9.333333333333334 0L 44.666666666666664 0C 57.111111111111114 0 57.111111111111114 28 44.666666666666664 28L 9.333333333333334 28C -3.111111111111111 28 -3.111111111111111 0 9.333333333333334 0Z" stroke="none" fill-opacity="1" fill="#66b2ff"></path><g id="SvgjsG1100"><text id="SvgjsText1101" font-family="微软雅黑" text-anchor="middle" font-size="13px" width="34px" fill="#ffffff" font-weight="400" align="middle" anchor="middle" family="微软雅黑" size="13px" weight="400" font-style="" opacity="1" y="4.05" transform="rotate(0)"><tspan id="SvgjsTspan1102" dy="16" x="27"><tspan id="SvgjsTspan1103" style="text-decoration:;">Start</tspan></tspan></text></g></g><g id="SvgjsG1104" transform="translate(254.75,392.0909090909089)"><path id="SvgjsPath1105" d="M 9.333333333333334 0L 44.666666666666664 0C 57.111111111111114 0 57.111111111111114 28 44.666666666666664 28L 9.333333333333334 28C -3.111111111111111 28 -3.111111111111111 0 9.333333333333334 0Z" stroke="none" fill-opacity="1" fill="#66b2ff"></path><g id="SvgjsG1106"><text id="SvgjsText1107" font-family="微软雅黑" text-anchor="middle" font-size="13px" width="34px" fill="#ffffff" font-weight="400" align="middle" anchor="middle" family="微软雅黑" size="13px" weight="400" font-style="" opacity="1" y="4.05" transform="rotate(0)"><tspan id="SvgjsTspan1108" dy="16" x="27"><tspan id="SvgjsTspan1109" style="text-decoration:;">End</tspan></tspan></text></g></g><g id="SvgjsG1110" transform="translate(163.9375,78)"><path id="SvgjsPath1111" d="M 0 0L 224.375 0L 224.375 27.5L 0 27.5Z" stroke="rgba(23,23,23,1)" stroke-width="1" fill-opacity="1" fill="#ffffff"></path><g id="SvgjsG1112"><text id="SvgjsText1113" font-family="微软雅黑" text-anchor="middle" font-size="13px" width="205px" fill="#454545" font-weight="400" align="middle" anchor="middle" family="微软雅黑" size="13px" weight="400" font-style="" opacity="1" y="3.8" transform="rotate(0)"><tspan id="SvgjsTspan1114" dy="16" x="112.5"><tspan id="SvgjsTspan1115" style="text-decoration:;">ViewGroup.dispatchTouchEvent()</tspan></tspan></text></g></g><g id="SvgjsG1116"><path id="SvgjsPath1117" d="M276.125 53L276.125 65.5L276.125 65.5L276.125 78" stroke="#000000" stroke-width="1" fill="none" marker-end="url(#SvgjsMarker1118)"></path></g><g id="SvgjsG1120" transform="translate(156.9375,133)"><path id="SvgjsPath1121" d="M 0 0L 238.375 0L 238.375 27.5L 0 27.5Z" stroke="rgba(23,23,23,1)" stroke-width="1" fill-opacity="1" fill="#ffffff"></path><g id="SvgjsG1122"><text id="SvgjsText1123" font-family="微软雅黑" text-anchor="middle" font-size="13px" width="219px" fill="#454545" font-weight="400" align="middle" anchor="middle" family="微软雅黑" size="13px" weight="400" font-style="" opacity="1" y="3.8" transform="rotate(0)"><tspan id="SvgjsTspan1124" dy="16" x="119.5"><tspan id="SvgjsTspan1125" style="text-decoration:;">ViewGroup.onInterceptTouchEvent()</tspan></tspan></text></g></g><g id="SvgjsG1126"><path id="SvgjsPath1127" d="M276.125 105.5L276.125 119.25L276.125 119.25L276.125 133" stroke="#000000" stroke-width="1" fill="none" marker-end="url(#SvgjsMarker1128)"></path></g><g id="SvgjsG1130"><path id="SvgjsPath1131" d="M276.125 160.5L276.125 176L276.125 176L276.125 191.5" stroke="#000000" stroke-width="1" fill="none" marker-end="url(#SvgjsMarker1132)"></path></g><g id="SvgjsG1134" transform="translate(71.36363636363636,324.0864589955507)"><path id="SvgjsPath1135" d="M 0 0L 188.9090909090909 0L 188.9090909090909 28.375079465988733L 0 28.375079465988733Z" stroke="rgba(23,23,23,1)" stroke-width="1" fill-opacity="1" fill="#ffff99"></path><g id="SvgjsG1136"><text id="SvgjsText1137" font-family="微软雅黑" text-anchor="middle" font-size="13px" width="169px" fill="#454545" font-weight="400" align="middle" anchor="middle" family="微软雅黑" size="13px" weight="400" font-style="" opacity="1" y="4.2375397329943665" transform="rotate(0)"><tspan id="SvgjsTspan1138" dy="16" x="94.5"><tspan id="SvgjsTspan1139" style="text-decoration:;">View.dispatchTouchEvent()</tspan></tspan></text></g></g><g id="SvgjsG1140" transform="translate(275.98568953907835,247.81818181818187)"><path id="SvgjsPath1141" d="M 0 0L 221.97727272727263 0L 221.97727272727263 27.68181818181813L 0 27.68181818181813Z" stroke="rgba(23,23,23,1)" stroke-width="1" fill-opacity="1" fill="#ffffff"></path><g id="SvgjsG1142"><text id="SvgjsText1143" font-family="微软雅黑" text-anchor="middle" font-size="13px" width="202px" fill="#454545" font-weight="400" align="middle" anchor="middle" family="微软雅黑" size="13px" weight="400" font-style="" opacity="1" y="3.890909090909065" transform="rotate(0)"><tspan id="SvgjsTspan1144" dy="16" x="111"><tspan id="SvgjsTspan1145" style="text-decoration:;">ViewGroup.dispatchTouchEvent()</tspan></tspan></text></g></g><g id="SvgjsG1146"><path id="SvgjsPath1147" d="M165.8181818181818 352.4615384615394L165.8181818181818 372.2762237762241L281.75 372.2762237762241L281.75 392.0909090909089" stroke="#000000" stroke-width="1" fill="none" marker-end="url(#SvgjsMarker1148)"></path></g><g id="SvgjsG1150" transform="translate(211.625,191.5)"><path id="SvgjsPath1151" d="M 0 17.5L 64.5 0L 129 17.5L 64.5 35Z" stroke="rgba(50,50,50,1)" stroke-width="1" fill-opacity="1" fill="#ffffff"></path><g id="SvgjsG1152"><text id="SvgjsText1153" font-family="微软雅黑" text-anchor="middle" font-size="13px" width="109px" fill="#323232" font-weight="400" align="middle" anchor="middle" family="微软雅黑" size="13px" weight="400" font-style="" opacity="1" y="7.7250000000000005" transform="rotate(0)"><tspan id="SvgjsTspan1154" dy="16" x="64.5"><tspan id="SvgjsTspan1155" style="text-decoration:;">return?</tspan></tspan></text></g></g><g id="SvgjsG1156"><path id="SvgjsPath1157" d="M340.625 209L386.97432590271467 209L386.97432590271467 247.81818181818187" stroke="#323232" stroke-width="1" fill="none" marker-end="url(#SvgjsMarker1158)"></path><rect id="SvgjsRect1160" width="24" height="16" x="351.7996629513573" y="201.9090909090909" fill="#ffffff"></rect><text id="SvgjsText1161" font-family="微软雅黑" text-anchor="middle" font-size="13px" width="24px" fill="#323232" font-weight="400" align="top" anchor="middle" family="微软雅黑" size="13px" weight="400" font-style="" opacity="1" y="199.95909090909092" transform="rotate(0)"><tspan id="SvgjsTspan1162" dy="16" x="363.7996629513573"><tspan id="SvgjsTspan1163" style="text-decoration:;">true</tspan></tspan></text></g><g id="SvgjsG1164"><path id="SvgjsPath1165" d="M211.625 209L165.8181818181818 209L165.8181818181818 324.0864589955507" stroke="#323232" stroke-width="1" fill="none" marker-end="url(#SvgjsMarker1166)"></path><rect id="SvgjsRect1168" width="29" height="16" x="175.13068181818178" y="201" fill="#ffffff"></rect><text id="SvgjsText1169" font-family="微软雅黑" text-anchor="middle" font-size="13px" width="29px" fill="#323232" font-weight="400" align="top" anchor="middle" family="微软雅黑" size="13px" weight="400" font-style="" opacity="1" y="199.05" transform="rotate(0)"><tspan id="SvgjsTspan1170" dy="16" x="189.63068181818178"><tspan id="SvgjsTspan1171" style="text-decoration:;">false</tspan></tspan></text></g><g id="SvgjsG1172" transform="translate(294.04180944397905,324.52399872854505)"><path id="SvgjsPath1173" d="M 0 0L 185.6875 0L 185.6875 27.5L 0 27.5Z" stroke="rgba(23,23,23,1)" stroke-width="1" fill-opacity="1" fill="#ffffff"></path><g id="SvgjsG1174"><text id="SvgjsText1175" font-family="微软雅黑" text-anchor="middle" font-size="13px" width="166px" fill="#454545" font-weight="400" align="middle" anchor="middle" family="微软雅黑" size="13px" weight="400" font-style="" opacity="1" y="3.8" transform="rotate(0)"><tspan id="SvgjsTspan1176" dy="16" x="93"><tspan id="SvgjsTspan1177" style="text-decoration:;">ViewGroup.onTouchEvent()</tspan></tspan></text></g></g><g id="SvgjsG1178"><path id="SvgjsPath1179" d="M386.97432590271467 275.5L386.97432590271467 300.0119993642725L386.88555944397905 300.0119993642725L386.88555944397905 324.52399872854505" stroke="#323232" stroke-width="1" fill="none" marker-end="url(#SvgjsMarker1180)"></path></g><g id="SvgjsG1182"><path id="SvgjsPath1183" d="M386.88555944397905 352.02399872854505L386.88555944397905 372.057453909727L281.75 372.057453909727L281.75 392.0909090909089" stroke="#323232" stroke-width="1" fill="none" marker-end="url(#SvgjsMarker1184)"></path></g><g id="SvgjsG1186" transform="translate(25,286.52399872854505)"><path id="SvgjsPath1187" d="M 0 0L 150 0L 150 35L 0 35Z" stroke="none" fill="none"></path><g id="SvgjsG1188"><text id="SvgjsText1189" font-family="微软雅黑" text-anchor="middle" font-size="13px" width="150px" fill="#323232" font-weight="400" align="middle" anchor="middle" family="微软雅黑" size="13px" weight="400" font-style="" opacity="1" y="7.55" transform="rotate(0)"><tspan id="SvgjsTspan1190" dy="16" x="75"><tspan id="SvgjsTspan1191" style="text-decoration:;">ViewGroup -&gt; View</tspan></tspan></text></g></g></svg>